<svg width="50" height="11" viewBox="0 0 50 11" fill="none" xmlns="http://www.w3.org/2000/svg">
<mask id="path-1-outside-1_183_493" maskUnits="userSpaceOnUse" x="-0.478851" y="-0.563965" width="51" height="12" fill="black">
<rect fill="white" x="-0.478851" y="-0.563965" width="51" height="12"/>
<path d="M0.100009 10.2544C1.89032 8.52897 4.32929 5.97323 4.32929 3.7548C4.32929 2.91154 3.92712 2.09423 2.78548 2.09423C2.14979 2.09423 1.56599 2.34072 1.00814 2.95046L0.891379 2.8337C1.69572 1.82179 2.55196 1.26394 3.70658 1.26394C4.8612 1.26394 5.80825 2.02936 5.82122 3.4175C5.83419 5.71377 2.98007 7.97111 1.33247 9.3852H4.18659C5.47094 9.3852 5.73041 9.25547 5.96393 8.67167L6.10663 8.68464L5.91203 10.436H0.100009V10.2544ZM8.7267 10.436V10.2544C9.24563 10.1117 9.34941 9.72251 9.34941 8.78843V2.60018L8.20777 3.08019L8.18182 2.98938L10.6208 1.28988H10.7246V8.78843C10.7246 9.72251 10.8284 10.1117 11.3473 10.2544V10.436H8.7267ZM13.87 7.49678H16.6952V8.06689H13.87V7.49678ZM19.6337 10.436V10.2544C20.1526 10.1117 20.2564 9.72251 20.2564 8.78843V2.60018L19.1148 3.08019L19.0888 2.98938L21.5278 1.28988H21.6316V8.78843C21.6316 9.72251 21.7354 10.1117 22.2543 10.2544V10.436H19.6337ZM25.0365 10.436V10.2544C25.5555 10.1117 25.6593 9.72251 25.6593 8.78843V2.60018L24.5176 3.08019L24.4917 2.98938L26.9306 1.28988H27.0344V8.78843C27.0344 9.72251 27.1382 10.1117 27.6571 10.2544V10.436H25.0365ZM30.1798 7.49678H33.005V8.06689H30.1798V7.49678ZM35.1522 10.2544C36.9425 8.52897 39.3815 5.97323 39.3815 3.7548C39.3815 2.91154 38.9793 2.09423 37.8376 2.09423C37.202 2.09423 36.6182 2.34072 36.0603 2.95046L35.9435 2.8337C36.7479 1.82179 37.6041 1.26394 38.7587 1.26394C39.9134 1.26394 40.8604 2.02936 40.8734 3.4175C40.8864 5.71377 38.0322 7.97111 36.3846 9.3852H39.2388C40.5231 9.3852 40.7826 9.25547 41.0161 8.67167L41.1588 8.68464L40.9642 10.436H35.1522V10.2544ZM46.5033 10.5658C44.713 10.5658 43.4286 9.21655 43.4286 7.05001C43.4286 5.0651 44.8946 2.17206 48.1638 0.135262L48.2806 0.303914C46.1141 1.69205 45.3227 3.67696 45.0503 5.16889C45.6081 4.76672 46.3087 4.49428 47.0352 4.49428C48.5271 4.49428 49.565 5.53214 49.565 7.30948C49.565 9.61872 47.7876 10.5658 46.5033 10.5658ZM44.9075 6.68676C44.9075 8.59383 45.5043 10.3193 46.8146 10.3193C47.8265 10.3193 48.2547 9.42412 48.2547 8.12679C48.2547 6.19378 47.6319 5.03916 46.3346 5.03916C45.9973 5.03916 45.5043 5.117 44.9984 5.42835C44.9205 5.93431 44.9075 6.3754 44.9075 6.68676Z"/>
</mask>
<path d="M0.100009 10.2544C1.89032 8.52897 4.32929 5.97323 4.32929 3.7548C4.32929 2.91154 3.92712 2.09423 2.78548 2.09423C2.14979 2.09423 1.56599 2.34072 1.00814 2.95046L0.891379 2.8337C1.69572 1.82179 2.55196 1.26394 3.70658 1.26394C4.8612 1.26394 5.80825 2.02936 5.82122 3.4175C5.83419 5.71377 2.98007 7.97111 1.33247 9.3852H4.18659C5.47094 9.3852 5.73041 9.25547 5.96393 8.67167L6.10663 8.68464L5.91203 10.436H0.100009V10.2544ZM8.7267 10.436V10.2544C9.24563 10.1117 9.34941 9.72251 9.34941 8.78843V2.60018L8.20777 3.08019L8.18182 2.98938L10.6208 1.28988H10.7246V8.78843C10.7246 9.72251 10.8284 10.1117 11.3473 10.2544V10.436H8.7267ZM13.87 7.49678H16.6952V8.06689H13.87V7.49678ZM19.6337 10.436V10.2544C20.1526 10.1117 20.2564 9.72251 20.2564 8.78843V2.60018L19.1148 3.08019L19.0888 2.98938L21.5278 1.28988H21.6316V8.78843C21.6316 9.72251 21.7354 10.1117 22.2543 10.2544V10.436H19.6337ZM25.0365 10.436V10.2544C25.5555 10.1117 25.6593 9.72251 25.6593 8.78843V2.60018L24.5176 3.08019L24.4917 2.98938L26.9306 1.28988H27.0344V8.78843C27.0344 9.72251 27.1382 10.1117 27.6571 10.2544V10.436H25.0365ZM30.1798 7.49678H33.005V8.06689H30.1798V7.49678ZM35.1522 10.2544C36.9425 8.52897 39.3815 5.97323 39.3815 3.7548C39.3815 2.91154 38.9793 2.09423 37.8376 2.09423C37.202 2.09423 36.6182 2.34072 36.0603 2.95046L35.9435 2.8337C36.7479 1.82179 37.6041 1.26394 38.7587 1.26394C39.9134 1.26394 40.8604 2.02936 40.8734 3.4175C40.8864 5.71377 38.0322 7.97111 36.3846 9.3852H39.2388C40.5231 9.3852 40.7826 9.25547 41.0161 8.67167L41.1588 8.68464L40.9642 10.436H35.1522V10.2544ZM46.5033 10.5658C44.713 10.5658 43.4286 9.21655 43.4286 7.05001C43.4286 5.0651 44.8946 2.17206 48.1638 0.135262L48.2806 0.303914C46.1141 1.69205 45.3227 3.67696 45.0503 5.16889C45.6081 4.76672 46.3087 4.49428 47.0352 4.49428C48.5271 4.49428 49.565 5.53214 49.565 7.30948C49.565 9.61872 47.7876 10.5658 46.5033 10.5658ZM44.9075 6.68676C44.9075 8.59383 45.5043 10.3193 46.8146 10.3193C47.8265 10.3193 48.2547 9.42412 48.2547 8.12679C48.2547 6.19378 47.6319 5.03916 46.3346 5.03916C45.9973 5.03916 45.5043 5.117 44.9984 5.42835C44.9205 5.93431 44.9075 6.3754 44.9075 6.68676Z" fill="white"/>
<path d="M0.10001 10.2544L0.0306168 10.1824L7.62939e-06 10.2119V10.2544H0.10001ZM1.00814 2.95046L0.937428 3.02117L1.01135 3.09509L1.08192 3.01796L1.00814 2.95046ZM0.89138 2.8337L0.813095 2.77148L0.75758 2.84132L0.820667 2.90441L0.89138 2.8337ZM5.82122 3.4175L5.92122 3.41693L5.92122 3.41656L5.82122 3.4175ZM1.33247 9.3852L1.26734 9.30932L1.06241 9.4852H1.33247V9.3852ZM5.96392 8.67167L5.97298 8.57208L5.89876 8.56533L5.87108 8.63453L5.96392 8.67167ZM6.10663 8.68464L6.20602 8.69569L6.21729 8.59429L6.11568 8.58505L6.10663 8.68464ZM5.91203 10.436V10.536H6.00154L6.01142 10.4471L5.91203 10.436ZM0.10001 10.436H7.62939e-06V10.536H0.10001V10.436ZM0.10001 10.2544L0.169403 10.3264C1.06528 9.463 2.12773 8.38786 2.96654 7.24877C3.80314 6.11269 4.42929 4.89724 4.42929 3.7548H4.32929H4.22929C4.22929 4.83079 3.63596 6.00242 2.8055 7.13018C1.97724 8.25493 0.925053 9.32038 0.0306168 10.1824L0.10001 10.2544ZM4.32929 3.7548H4.42929C4.42929 3.31925 4.32569 2.87955 4.06415 2.54653C3.79952 2.20957 3.38285 1.99423 2.78548 1.99423V2.09422V2.19423C3.32975 2.19423 3.68499 2.38754 3.90686 2.67005C4.13181 2.9565 4.22929 3.34709 4.22929 3.7548H4.32929ZM2.78548 2.09422V1.99423C2.1186 1.99423 1.50893 2.25494 0.934357 2.88296L1.00814 2.95046L1.08192 3.01796C1.62305 2.4265 2.18098 2.19423 2.78548 2.19423V2.09422ZM1.00814 2.95046L1.07885 2.87975L0.96209 2.76299L0.89138 2.8337L0.820667 2.90441L0.937428 3.02117L1.00814 2.95046ZM0.89138 2.8337L0.969662 2.89593C1.76254 1.89844 2.59275 1.36394 3.70658 1.36394V1.26394V1.16394C2.51116 1.16394 1.62891 1.74514 0.813095 2.77148L0.89138 2.8337ZM3.70658 1.26394V1.36394C4.26187 1.36394 4.7614 1.54778 5.12301 1.89254C5.48384 2.23655 5.71496 2.748 5.72123 3.41843L5.82122 3.4175L5.92122 3.41656C5.91451 2.69886 5.66562 2.13352 5.26102 1.74779C4.85721 1.3628 4.30591 1.16394 3.70658 1.16394V1.26394ZM5.82122 3.4175L5.72122 3.41806C5.72749 4.52693 5.0396 5.64104 4.12496 6.66557C3.21273 7.68741 2.09405 8.59978 1.26734 9.30932L1.33247 9.3852L1.3976 9.46108C2.21849 8.75654 3.35068 7.83319 4.27416 6.79876C5.19524 5.76703 5.92793 4.60434 5.92122 3.41693L5.82122 3.4175ZM1.33247 9.3852V9.4852H4.18659V9.3852V9.2852H1.33247V9.3852ZM4.18659 9.3852V9.4852C4.826 9.4852 5.2318 9.45393 5.50757 9.33975C5.79811 9.21947 5.93554 9.01188 6.05677 8.70881L5.96392 8.67167L5.87108 8.63453C5.75879 8.91525 5.64973 9.06444 5.43107 9.15497C5.19763 9.25161 4.83153 9.2852 4.18659 9.2852V9.3852ZM5.96392 8.67167L5.95487 8.77126L6.09758 8.78423L6.10663 8.68464L6.11568 8.58505L5.97298 8.57208L5.96392 8.67167ZM6.10663 8.68464L6.00724 8.6736L5.81264 10.425L5.91203 10.436L6.01142 10.4471L6.20602 8.69569L6.10663 8.68464ZM5.91203 10.436V10.336H0.10001V10.436V10.536H5.91203V10.436ZM0.10001 10.436H0.200008V10.2544H0.10001H7.62939e-06V10.436H0.10001ZM8.7267 10.436H8.6267V10.536H8.7267V10.436ZM8.7267 10.2544L8.70018 10.158L8.6267 10.1782V10.2544H8.7267ZM9.34941 2.60018H9.44941V2.44966L9.31066 2.508L9.34941 2.60018ZM8.20777 3.08019L8.11161 3.10767L8.14259 3.21608L8.24652 3.17238L8.20777 3.08019ZM8.18182 2.98938L8.12465 2.90733L8.06604 2.94817L8.08567 3.01685L8.18182 2.98938ZM10.6208 1.28988V1.18988H10.5894L10.5636 1.20784L10.6208 1.28988ZM10.7246 1.28988H10.8246V1.18988H10.7246V1.28988ZM11.3473 10.2544H11.4473V10.1782L11.3738 10.158L11.3473 10.2544ZM11.3473 10.436V10.536H11.4473V10.436H11.3473ZM8.7267 10.436H8.8267V10.2544H8.7267H8.6267V10.436H8.7267ZM8.7267 10.2544L8.75321 10.3508C8.89334 10.3123 9.01152 10.2554 9.10814 10.1723C9.20516 10.0888 9.27543 9.9832 9.32577 9.85465C9.42431 9.60302 9.44941 9.25439 9.44941 8.78843H9.34941H9.24942C9.24942 9.25654 9.22263 9.56955 9.13954 9.78172C9.09907 9.88507 9.04609 9.96186 8.9777 10.0207C8.90891 10.0799 8.81952 10.1252 8.70018 10.158L8.7267 10.2544ZM9.34941 8.78843H9.44941V2.60018H9.34941H9.24942V8.78843H9.34941ZM9.34941 2.60018L9.31066 2.508L8.16901 2.98801L8.20777 3.08019L8.24652 3.17238L9.38817 2.69237L9.34941 2.60018ZM8.20777 3.08019L8.30392 3.05272L8.27797 2.96191L8.18182 2.98938L8.08567 3.01685L8.11161 3.10767L8.20777 3.08019ZM8.18182 2.98938L8.23899 3.07143L10.678 1.37193L10.6208 1.28988L10.5636 1.20784L8.12465 2.90733L8.18182 2.98938ZM10.6208 1.28988V1.38988H10.7246V1.28988V1.18988H10.6208V1.28988ZM10.7246 1.28988H10.6246V8.78843H10.7246H10.8246V1.28988H10.7246ZM10.7246 8.78843H10.6246C10.6246 9.25439 10.6497 9.60302 10.7482 9.85465C10.7986 9.9832 10.8688 10.0888 10.9659 10.1723C11.0625 10.2554 11.1807 10.3123 11.3208 10.3508L11.3473 10.2544L11.3738 10.158C11.2545 10.1252 11.1651 10.0799 11.0963 10.0207C11.0279 9.96186 10.9749 9.88507 10.9345 9.78172C10.8514 9.56955 10.8246 9.25654 10.8246 8.78843H10.7246ZM11.3473 10.2544H11.2473V10.436H11.3473H11.4473V10.2544H11.3473ZM11.3473 10.436V10.336H8.7267V10.436V10.536H11.3473V10.436ZM13.87 7.49678V7.39678H13.77V7.49678H13.87ZM16.6952 7.49678H16.7952V7.39678H16.6952V7.49678ZM16.6952 8.06689V8.16689H16.7952V8.06689H16.6952ZM13.87 8.06689H13.77V8.16689H13.87V8.06689ZM13.87 7.49678V7.59678H16.6952V7.49678V7.39678H13.87V7.49678ZM16.6952 7.49678H16.5952V8.06689H16.6952H16.7952V7.49678H16.6952ZM16.6952 8.06689V7.96689H13.87V8.06689V8.16689H16.6952V8.06689ZM13.87 8.06689H13.97V7.49678H13.87H13.77V8.06689H13.87ZM19.6337 10.436H19.5337V10.536H19.6337V10.436ZM19.6337 10.2544L19.6072 10.158L19.5337 10.1782V10.2544H19.6337ZM20.2564 2.60018H20.3564V2.44966L20.2177 2.508L20.2564 2.60018ZM19.1148 3.08019L19.0186 3.10767L19.0496 3.21608L19.1535 3.17238L19.1148 3.08019ZM19.0888 2.98938L19.0317 2.90733L18.9731 2.94817L18.9927 3.01685L19.0888 2.98938ZM21.5278 1.28988V1.18988H21.4964L21.4706 1.20784L21.5278 1.28988ZM21.6316 1.28988H21.7316V1.18988H21.6316V1.28988ZM22.2543 10.2544H22.3543V10.1782L22.2808 10.158L22.2543 10.2544ZM22.2543 10.436V10.536H22.3543V10.436H22.2543ZM19.6337 10.436H19.7337V10.2544H19.6337H19.5337V10.436H19.6337ZM19.6337 10.2544L19.6602 10.3508C19.8004 10.3123 19.9185 10.2554 20.0152 10.1723C20.1122 10.0888 20.1824 9.9832 20.2328 9.85465C20.3313 9.60302 20.3564 9.25439 20.3564 8.78843H20.2564H20.1564C20.1564 9.25654 20.1296 9.56955 20.0466 9.78172C20.0061 9.88507 19.9531 9.96186 19.8847 10.0207C19.8159 10.0799 19.7265 10.1252 19.6072 10.158L19.6337 10.2544ZM20.2564 8.78843H20.3564V2.60018H20.2564H20.1564V8.78843H20.2564ZM20.2564 2.60018L20.2177 2.508L19.076 2.98801L19.1148 3.08019L19.1535 3.17238L20.2952 2.69237L20.2564 2.60018ZM19.1148 3.08019L19.2109 3.05272L19.185 2.96191L19.0888 2.98938L18.9927 3.01685L19.0186 3.10767L19.1148 3.08019ZM19.0888 2.98938L19.146 3.07143L21.585 1.37193L21.5278 1.28988L21.4706 1.20784L19.0317 2.90733L19.0888 2.98938ZM21.5278 1.28988V1.38988H21.6316V1.28988V1.18988H21.5278V1.28988ZM21.6316 1.28988H21.5316V8.78843H21.6316H21.7316V1.28988H21.6316ZM21.6316 8.78843H21.5316C21.5316 9.25439 21.5567 9.60302 21.6552 9.85465C21.7056 9.9832 21.7758 10.0888 21.8729 10.1723C21.9695 10.2554 22.0877 10.3123 22.2278 10.3508L22.2543 10.2544L22.2808 10.158C22.1615 10.1252 22.0721 10.0799 22.0033 10.0207C21.9349 9.96186 21.8819 9.88507 21.8415 9.78172C21.7584 9.56955 21.7316 9.25654 21.7316 8.78843H21.6316ZM22.2543 10.2544H22.1543V10.436H22.2543H22.3543V10.2544H22.2543ZM22.2543 10.436V10.336H19.6337V10.436V10.536H22.2543V10.436ZM25.0365 10.436H24.9365V10.536H25.0365V10.436ZM25.0365 10.2544L25.01 10.158L24.9365 10.1782V10.2544H25.0365ZM25.6593 2.60018H25.7593V2.44966L25.6205 2.508L25.6593 2.60018ZM24.5176 3.08019L24.4215 3.10767L24.4524 3.21608L24.5564 3.17238L24.5176 3.08019ZM24.4917 2.98938L24.4345 2.90733L24.3759 2.94817L24.3955 3.01685L24.4917 2.98938ZM26.9306 1.28988V1.18988H26.8992L26.8735 1.20784L26.9306 1.28988ZM27.0344 1.28988H27.1344V1.18988H27.0344V1.28988ZM27.6571 10.2544H27.7571V10.1782L27.6836 10.158L27.6571 10.2544ZM27.6571 10.436V10.536H27.7571V10.436H27.6571ZM25.0365 10.436H25.1365V10.2544H25.0365H24.9365V10.436H25.0365ZM25.0365 10.2544L25.063 10.3508C25.2032 10.3123 25.3214 10.2554 25.418 10.1723C25.515 10.0888 25.5853 9.9832 25.6356 9.85465C25.7341 9.60302 25.7593 9.25439 25.7593 8.78843H25.6593H25.5592C25.5592 9.25654 25.5325 9.56955 25.4494 9.78172C25.4089 9.88507 25.3559 9.96186 25.2875 10.0207C25.2187 10.0799 25.1294 10.1252 25.01 10.158L25.0365 10.2544ZM25.6593 8.78843H25.7593V2.60018H25.6593H25.5592V8.78843H25.6593ZM25.6593 2.60018L25.6205 2.508L24.4788 2.98801L24.5176 3.08019L24.5564 3.17238L25.698 2.69237L25.6593 2.60018ZM24.5176 3.08019L24.6138 3.05272L24.5878 2.96191L24.4917 2.98938L24.3955 3.01685L24.4215 3.10767L24.5176 3.08019ZM24.4917 2.98938L24.5488 3.07143L26.9878 1.37193L26.9306 1.28988L26.8735 1.20784L24.4345 2.90733L24.4917 2.98938ZM26.9306 1.28988V1.38988H27.0344V1.28988V1.18988H26.9306V1.28988ZM27.0344 1.28988H26.9344V8.78843H27.0344H27.1344V1.28988H27.0344ZM27.0344 8.78843H26.9344C26.9344 9.25439 26.9595 9.60302 27.0581 9.85465C27.1084 9.9832 27.1787 10.0888 27.2757 10.1723C27.3723 10.2554 27.4905 10.3123 27.6306 10.3508L27.6571 10.2544L27.6836 10.158C27.5643 10.1252 27.4749 10.0799 27.4061 10.0207C27.3377 9.96186 27.2848 9.88507 27.2443 9.78172C27.1612 9.56955 27.1344 9.25654 27.1344 8.78843H27.0344ZM27.6571 10.2544H27.5571V10.436H27.6571H27.7571V10.2544H27.6571ZM27.6571 10.436V10.336H25.0365V10.436V10.536H27.6571V10.436ZM30.1798 7.49678V7.39678H30.0798V7.49678H30.1798ZM33.005 7.49678H33.105V7.39678H33.005V7.49678ZM33.005 8.06689V8.16689H33.105V8.06689H33.005ZM30.1798 8.06689H30.0798V8.16689H30.1798V8.06689ZM30.1798 7.49678V7.59678H33.005V7.49678V7.39678H30.1798V7.49678ZM33.005 7.49678H32.905V8.06689H33.005H33.105V7.49678H33.005ZM33.005 8.06689V7.96689H30.1798V8.06689V8.16689H33.005V8.06689ZM30.1798 8.06689H30.2798V7.49678H30.1798H30.0798V8.06689H30.1798ZM35.1522 10.2544L35.0828 10.1824L35.0522 10.2119V10.2544H35.1522ZM36.0603 2.95046L35.9896 3.02117L36.0635 3.09509L36.1341 3.01796L36.0603 2.95046ZM35.9436 2.8337L35.8653 2.77148L35.8097 2.84132L35.8728 2.90441L35.9436 2.8337ZM40.8734 3.4175L40.9734 3.41693V3.41656L40.8734 3.4175ZM36.3846 9.3852L36.3195 9.30932L36.1146 9.4852H36.3846V9.3852ZM41.0161 8.67167L41.0251 8.57208L40.9509 8.56533L40.9232 8.63453L41.0161 8.67167ZM41.1588 8.68464L41.2582 8.69569L41.2695 8.59429L41.1679 8.58505L41.1588 8.68464ZM40.9642 10.436V10.536H41.0537L41.0636 10.4471L40.9642 10.436ZM35.1522 10.436H35.0522V10.536H35.1522V10.436ZM35.1522 10.2544L35.2216 10.3264C36.1174 9.463 37.1799 8.38786 38.0187 7.24877C38.8553 6.11269 39.4815 4.89724 39.4815 3.7548H39.3815H39.2815C39.2815 4.83079 38.6881 6.00242 37.8577 7.13018C37.0294 8.25493 35.9772 9.32038 35.0828 10.1824L35.1522 10.2544ZM39.3815 3.7548H39.4815C39.4815 3.31925 39.3779 2.87955 39.1163 2.54653C38.8517 2.20957 38.435 1.99423 37.8376 1.99423V2.09422V2.19423C38.3819 2.19423 38.7372 2.38754 38.959 2.67005C39.184 2.9565 39.2815 3.34709 39.2815 3.7548H39.3815ZM37.8376 2.09422V1.99423C37.1708 1.99423 36.5611 2.25494 35.9865 2.88296L36.0603 2.95046L36.1341 3.01796C36.6752 2.4265 37.2331 2.19423 37.8376 2.19423V2.09422ZM36.0603 2.95046L36.131 2.87975L36.0143 2.76299L35.9436 2.8337L35.8728 2.90441L35.9896 3.02117L36.0603 2.95046ZM35.9436 2.8337L36.0218 2.89593C36.8147 1.89844 37.6449 1.36394 38.7588 1.36394V1.26394V1.16394C37.5633 1.16394 36.6811 1.74514 35.8653 2.77148L35.9436 2.8337ZM38.7588 1.26394V1.36394C39.314 1.36394 39.8136 1.54778 40.1752 1.89254C40.536 2.23655 40.7671 2.748 40.7734 3.41843L40.8734 3.4175L40.9734 3.41656C40.9667 2.69886 40.7178 2.13352 40.3132 1.74779C39.9094 1.3628 39.3581 1.16394 38.7588 1.16394V1.26394ZM40.8734 3.4175L40.7734 3.41806C40.7797 4.52693 40.0918 5.64104 39.1771 6.66557C38.2649 7.68741 37.1462 8.59978 36.3195 9.30932L36.3846 9.3852L36.4498 9.46108C37.2707 8.75654 38.4028 7.83319 39.3263 6.79876C40.2474 5.76703 40.9801 4.60434 40.9734 3.41693L40.8734 3.4175ZM36.3846 9.3852V9.4852H39.2388V9.3852V9.2852H36.3846V9.3852ZM39.2388 9.3852V9.4852C39.8782 9.4852 40.284 9.45393 40.5597 9.33975C40.8503 9.21947 40.9877 9.01188 41.1089 8.70881L41.0161 8.67167L40.9232 8.63453C40.811 8.91525 40.7019 9.06444 40.4832 9.15497C40.2498 9.25161 39.8837 9.2852 39.2388 9.2852V9.3852ZM41.0161 8.67167L41.007 8.77126L41.1497 8.78423L41.1588 8.68464L41.1679 8.58505L41.0251 8.57208L41.0161 8.67167ZM41.1588 8.68464L41.0594 8.6736L40.8648 10.425L40.9642 10.436L41.0636 10.4471L41.2582 8.69569L41.1588 8.68464ZM40.9642 10.436V10.336H35.1522V10.436V10.536H40.9642V10.436ZM35.1522 10.436H35.2522V10.2544H35.1522H35.0522V10.436H35.1522ZM48.1638 0.135262L48.2461 0.0783405L48.1918 5.72205e-06L48.111 0.0503864L48.1638 0.135262ZM48.2806 0.303914L48.3345 0.388114L48.4218 0.332204L48.3628 0.246993L48.2806 0.303914ZM45.0503 5.16889L44.9519 5.15093L44.9073 5.39525L45.1087 5.25001L45.0503 5.16889ZM44.9984 5.42835L44.946 5.34319L44.9066 5.36743L44.8995 5.41315L44.9984 5.42835ZM46.5033 10.5658V10.4658C45.6346 10.4658 44.8937 10.1391 44.369 9.55361C43.8437 8.96727 43.5286 8.1137 43.5286 7.05001H43.4286H43.3286C43.3286 8.15286 43.6557 9.05717 44.2201 9.68707C44.7852 10.3178 45.5816 10.6658 46.5033 10.6658V10.5658ZM43.4286 7.05001H43.5286C43.5286 5.10787 44.969 2.24351 48.2167 0.220138L48.1638 0.135262L48.111 0.0503864C44.8201 2.10062 43.3286 5.02233 43.3286 7.05001H43.4286ZM48.1638 0.135262L48.0816 0.192183L48.1984 0.360835L48.2806 0.303914L48.3628 0.246993L48.2461 0.0783405L48.1638 0.135262ZM48.2806 0.303914L48.2267 0.219715C46.0299 1.62719 45.2276 3.64087 44.9519 5.15093L45.0503 5.16889L45.1486 5.18685C45.4178 3.71306 46.1982 1.75692 48.3345 0.388114L48.2806 0.303914ZM45.0503 5.16889L45.1087 5.25001C45.6527 4.85783 46.3332 4.59428 47.0352 4.59428V4.49428V4.39428C46.2841 4.39428 45.5635 4.6756 44.9918 5.08777L45.0503 5.16889ZM47.0352 4.49428V4.59428C47.757 4.59428 48.3615 4.84473 48.7862 5.30332C49.2114 5.76256 49.465 6.44011 49.465 7.30948H49.5649H49.665C49.665 6.40151 49.3996 5.67146 48.9329 5.16744C48.4656 4.66275 47.8052 4.39428 47.0352 4.39428V4.49428ZM49.5649 7.30948H49.465C49.465 8.43568 49.0328 9.22202 48.4502 9.72809C47.8648 10.2366 47.1231 10.4658 46.5033 10.4658V10.5658V10.6658C47.1677 10.6658 47.9569 10.4214 48.5813 9.87908C49.2085 9.33432 49.665 8.49251 49.665 7.30948H49.5649ZM44.9075 6.68676H44.8075C44.8075 7.64854 44.9577 8.57274 45.2791 9.26051C45.6008 9.94896 46.1053 10.4193 46.8146 10.4193V10.3193V10.2193C46.2137 10.2193 45.7646 9.82687 45.4603 9.17583C45.1558 8.52411 45.0076 7.63205 45.0076 6.68676H44.9075ZM46.8146 10.3193V10.4193C47.3564 10.4193 47.7485 10.1765 47.9997 9.7613C48.2467 9.35293 48.3547 8.78366 48.3547 8.12679H48.2547H48.1547C48.1547 8.76725 48.0485 9.29422 47.8285 9.65777C47.6127 10.0145 47.2847 10.2193 46.8146 10.2193V10.3193ZM48.2547 8.12679H48.3547C48.3547 7.15238 48.1982 6.35938 47.8669 5.80668C47.5315 5.2471 47.0194 4.93916 46.3346 4.93916V5.03916V5.13916C46.9472 5.13916 47.3951 5.40852 47.6954 5.9095C47.9998 6.41737 48.1547 7.16819 48.1547 8.12679H48.2547ZM46.3346 5.03916V4.93916C45.9825 4.93916 45.4706 5.02034 44.946 5.34319L44.9984 5.42835L45.0508 5.51352C45.5381 5.21365 46.0121 5.13916 46.3346 5.13916V5.03916ZM44.9984 5.42835L44.8995 5.41315C44.8206 5.92596 44.8075 6.37257 44.8075 6.68676H44.9075H45.0076C45.0076 6.37824 45.0204 5.94266 45.0972 5.44356L44.9984 5.42835Z" fill="white" mask="url(#path-1-outside-1_183_493)"/>
</svg>
